<?xml version="1.0" encoding="utf-8"?>
<!-- Generator: Adobe Illustrator 27.5.0, SVG Export Plug-In . SVG Version: 6.00 Build 0)  -->
<svg version="1.1" xmlns="http://www.w3.org/2000/svg" xmlns:xlink="http://www.w3.org/1999/xlink" x="0px" y="0px"
	 viewBox="0 0 750 500" style="enable-background:new 0 0 750 500;" xml:space="preserve">
<g id="Background_Simple">
	<g>
		<path style="fill:#92E3A9;" d="M695.986,277.287c0,0,10-178-141-227s-227-13-275,33s-64,76-119,82s-106,16-132,83s7,120,57,153
			s108-2,154,19s75,56,169,60s97-23,145-65S686.986,417.287,695.986,277.287z"/>
		<path style="opacity:0.7;fill:#FFFFFF;" d="M695.986,277.287c0,0,10-178-141-227s-227-13-275,33s-64,76-119,82s-106,16-132,83
			s7,120,57,153s108-2,154,19s75,56,169,60s97-23,145-65S686.986,417.287,695.986,277.287z"/>
	</g>
</g>
<g id="Plant">
	<g>
		<g>
			<path style="fill:#263238;" d="M600.092,292.259c3.723,1.626,12.828,1.421,12.835,1.421c0.094-0.002-1.957-5.961-2.13-6.322
				c-1.997-4.179-8.316-11.08-13.456-10.385c-3.703,0.5-5.763,4.207-4.927,7.693C593.269,288.228,596.922,290.873,600.092,292.259z"
				/>
			<path style="fill:#263238;" d="M603.235,318.633c3.862,0.563,11.988-1.793,12.634-1.984c1.283,4.549,2.968,9.113,4.929,13.637
				c1.117,2.588,2.324,5.16,3.566,7.723c-0.741-1.086-1.412-2.051-1.52-2.176c-3.032-3.503-10.947-8.49-15.721-6.462
				c-3.441,1.46-4.447,5.578-2.72,8.721c1.763,3.209,5.987,4.797,9.41,5.295c3.475,0.507,10.443-1.363,12.281-1.883
				c0.487,0.979,0.961,1.961,1.453,2.937c2.352,4.686,4.721,9.351,6.904,13.998c0.77,1.637,1.468,3.278,2.173,4.918
				c-0.66-0.964-1.223-1.77-1.322-1.885c-3.031-3.503-10.946-8.49-15.721-6.462c-3.44,1.461-4.447,5.579-2.721,8.721
				c1.765,3.209,5.987,4.797,9.411,5.295c3.315,0.484,9.762-1.185,11.949-1.792c0.671,1.7,1.346,3.402,1.919,5.08
				c0.366,1.155,0.799,2.241,1.1,3.42c0.325,1.162,0.645,2.313,0.963,3.452c0.532,2.216,1.094,4.5,1.559,6.675
				c0.334,1.51,0.625,2.956,0.922,4.412c-0.747-1.639-2.279-4.816-2.437-5.068c-2.464-3.922-9.533-10.05-14.56-8.769
				c-3.622,0.923-5.241,4.841-4.009,8.209c1.257,3.439,5.19,5.647,8.499,6.659c3.643,1.113,11.708,0.096,12.715-0.038
				c0.483,2.41,0.931,4.758,1.317,6.981c0.865,4.905,1.517,9.303,2.013,13.025h3.4c-0.593-3.85-1.368-8.438-2.393-13.589
				c-0.481-2.449-1.043-5.056-1.647-7.728c0.606-0.241,4.046-1.632,7.094-3.336c2.655,2.875,9.458,6.24,10.339,6.668
				c-0.926,2.277-1.849,4.483-2.753,6.549c-1.881,4.33-3.668,8.169-5.246,11.436h3.677c1.356-3.011,2.846-6.44,4.4-10.239
				c0.95-2.308,1.92-4.794,2.89-7.354c0.976,0.204,8.96,1.825,12.681,0.986c3.374-0.763,7.462-2.672,8.973-6.008
				c1.479-3.266,0.155-7.294-3.389-8.484c-4.916-1.652-12.423,3.933-15.173,7.66c-0.163,0.22-1.656,2.802-2.572,4.447
				c0.391-1.048,0.782-2.062,1.172-3.147c0.786-2.139,1.505-4.297,2.288-6.615c0.339-1.133,0.681-2.278,1.028-3.433
				c0.367-1.139,0.61-2.389,0.924-3.593c0.669-2.808,1.209-5.686,1.69-8.597c1.875,0.682,8.568,3.011,12.035,2.766
				c3.452-0.243,7.78-1.51,9.779-4.579c1.957-3.004,1.259-7.187-2.062-8.9c-4.611-2.378-12.876,2.006-16.159,5.274
				c-0.205,0.203-2.297,2.813-3.419,4.268c0.275-1.752,0.559-3.5,0.779-5.282c0.639-5.143,1.124-10.37,1.633-15.581
				c0.155-1.596,0.328-3.185,0.496-4.776c0.665,0.25,8.559,3.189,12.443,2.917c3.451-0.242,7.78-1.51,9.779-4.58
				c1.957-3.004,1.258-7.187-2.063-8.899c-4.61-2.378-12.876,2.005-16.159,5.273c-0.247,0.246-3.253,4.005-3.97,4.999
				c0.37-3.505,0.772-6.993,1.307-10.416c0.732-4.723,1.712-9.318,2.99-13.699c0.309,0.118,8.536,3.222,12.513,2.943
				c3.452-0.243,7.781-1.511,9.779-4.579c1.956-3.004,1.259-7.187-2.063-8.9c-4.611-2.378-12.875,2.006-16.159,5.273
				c-0.257,0.257-3.489,4.303-4.022,5.078c0.077-0.26,0.128-0.539,0.207-0.797c1.424-4.66,3.389-8.995,5.427-12.964
				c1.18-2.309,2.437-4.449,3.706-6.504c1.474,0.736,8.242,4.022,11.848,4.166c3.457,0.138,7.9-0.647,10.223-3.478
				c2.276-2.771,2.041-7.005-1.072-9.073c-4.322-2.87-13.018,0.58-16.64,3.467c-0.197,0.157-2.022,1.975-3.333,3.318
				c0.587-0.919,1.175-1.878,1.755-2.747c2.17-3.268,4.358-6.127,6.317-8.644c1.125-1.421,2.171-2.685,3.162-3.857
				c1.821-0.032,9.161-0.255,12.371-1.761c3.131-1.471,6.713-4.214,7.471-7.797c0.741-3.509-1.418-7.158-5.133-7.558
				c-5.158-0.556-11.287,6.512-13.172,10.744c-0.162,0.366-2.052,6.378-1.957,6.377c0,0,0.088-0.001,0.11-0.001
				c-0.977,1.108-2.01,2.308-3.113,3.642c-2.018,2.479-4.274,5.297-6.523,8.531c-2.257,3.226-4.617,6.794-6.765,10.776
				c-2.158,3.989-4.223,8.296-5.778,13.008c-0.018,0.053-0.029,0.111-0.047,0.164c0.027-1.52-0.04-5.771-0.083-6.096
				c-0.596-4.594-4.445-13.121-9.547-14.064c-3.675-0.678-6.787,2.2-7.08,5.774c-0.298,3.65,2.347,7.302,4.928,9.608
				c2.91,2.599,10.988,5.116,11.631,5.315c-1.44,4.501-2.551,9.237-3.413,14.092c-0.495,2.776-0.908,5.586-1.286,8.41
				c-0.019-1.315-0.046-2.49-0.068-2.654c-0.596-4.595-4.446-13.12-9.547-14.064c-3.675-0.68-6.787,2.201-7.08,5.774
				c-0.299,3.65,2.347,7.302,4.927,9.607c2.619,2.339,9.462,4.624,11.281,5.204c-0.134,1.084-0.279,2.167-0.408,3.252
				c-0.622,5.206-1.22,10.404-1.964,15.484c-0.26,1.791-0.583,3.544-0.9,5.299c-0.018-1.167-0.044-2.15-0.063-2.299
				c-0.596-4.594-4.445-13.12-9.546-14.064c-3.676-0.679-6.789,2.2-7.082,5.775c-0.299,3.648,2.348,7.303,4.929,9.607
				c2.498,2.232,8.796,4.398,10.954,5.097c-0.378,1.788-0.755,3.58-1.202,5.296c-0.332,1.165-0.571,2.308-0.969,3.46
				c-0.37,1.147-0.737,2.285-1.1,3.41c-0.78,2.142-1.57,4.357-2.383,6.428c-0.554,1.444-1.11,2.81-1.664,4.188
				c0.28-1.779,0.757-5.274,0.763-5.57c0.071-3.077-1.022-8.08-3.197-11.596c0.013-0.455-0.013-0.907-0.085-1.357
				c-0.569-3.54-3.895-6.17-7.507-5.208c-5.013,1.334-8.192,10.134-8.429,14.759c-0.015,0.273,0.164,3.251,0.308,5.128
				c-0.253-1.091-0.485-2.152-0.758-3.271c-0.526-2.217-1.116-4.414-1.741-6.781c-0.342-1.132-0.689-2.275-1.038-3.43
				c-0.322-1.152-0.809-2.328-1.211-3.506c-0.991-2.71-2.128-5.41-3.333-8.103c1.941-0.465,8.807-2.215,11.564-4.331
				c2.745-2.106,5.656-5.552,5.63-9.213c-0.026-3.586-2.914-6.689-6.63-6.286c-5.157,0.56-9.633,8.776-10.569,13.312
				c-0.058,0.283-0.364,3.614-0.496,5.447c-0.737-1.613-1.465-3.227-2.264-4.835c-2.304-4.642-4.781-9.27-7.233-13.896
				c-0.752-1.417-1.483-2.838-2.222-4.257c0.693-0.159,8.899-2.063,11.988-4.432c2.745-2.105,5.656-5.552,5.63-9.214
				c-0.026-3.585-2.915-6.689-6.63-6.284c-5.157,0.56-9.633,8.775-10.569,13.312c-0.07,0.342-0.503,5.135-0.553,6.359
				c-1.624-3.126-3.214-6.258-4.656-9.408c-1.995-4.344-3.713-8.716-5.063-13.075c0.323-0.073,8.897-2.022,12.06-4.449
				c2.745-2.106,5.656-5.552,5.63-9.214c-0.025-3.586-2.914-6.688-6.63-6.285c-5.157,0.56-9.633,8.776-10.568,13.312
				c-0.074,0.357-0.536,5.514-0.553,6.454c-0.08-0.259-0.192-0.519-0.268-0.778c-1.382-4.673-2.135-9.372-2.625-13.807
				c-0.289-2.576-0.421-5.054-0.496-7.469c1.634-0.2,9.092-1.192,12.18-3.062c2.96-1.792,6.232-4.897,6.608-8.54
				c0.368-3.567-2.163-6.969-5.9-6.976c-5.188-0.01-10.539,7.665-11.967,12.071c-0.078,0.24-0.598,2.763-0.95,4.606
				c-0.017-1.09-0.055-2.215-0.05-3.259c0.008-3.923,0.255-7.515,0.5-10.694c0.154-1.807,0.33-3.438,0.51-4.961
				c1.501-1.033,7.5-5.267,9.346-8.294c1.801-2.954,3.274-7.217,1.929-10.624c-1.317-3.335-5.131-5.188-8.45-3.472
				c-4.609,2.382-5.821,11.659-5.059,16.229c0.067,0.394,1.807,6.451,1.886,6.399c0,0,0.073-0.051,0.09-0.063
				c-0.203,1.463-0.403,3.034-0.586,4.755c-0.316,3.18-0.643,6.776-0.735,10.715c-0.102,3.935-0.103,8.214,0.303,12.72
				c0.401,4.517,1.053,9.249,2.357,14.037c0.015,0.054,0.037,0.109,0.052,0.162c-0.816-1.282-3.218-4.79-3.434-5.039
				c-3.031-3.504-10.946-8.491-15.721-6.464c-3.44,1.462-4.448,5.58-2.72,8.722C595.59,316.547,599.812,318.134,603.235,318.633z"/>
			<path style="fill:#263238;" d="M692.192,294.262c0.08,0.05,1.656-6.052,1.712-6.448c0.638-4.587-0.825-13.829-5.496-16.085
				c-3.364-1.626-7.127,0.33-8.352,3.7c-1.253,3.44,0.335,7.663,2.215,10.567C684.477,289.406,692.185,294.257,692.192,294.262z"/>
		</g>
		<polygon style="fill:#FFFFFF;stroke:#263238;stroke-linecap:round;stroke-linejoin:round;stroke-miterlimit:10;" points="
			680.399,460.498 630.629,460.498 624.408,405.224 686.62,405.224 		"/>
		<g>
			<polygon style="fill:#263238;" points="625.548,415.35 626.15,420.706 684.878,420.706 685.48,415.35 			"/>
			<polygon style="fill:#263238;" points="683.551,432.487 684.154,427.132 626.874,427.132 627.477,432.487 			"/>
		</g>
	</g>
</g>
<g id="Device">
	<g>
		
			<rect x="391.038" y="337.85" style="fill:#263238;stroke:#263238;stroke-linecap:round;stroke-linejoin:round;stroke-miterlimit:10;" width="30.222" height="121.93"/>
		
			<rect x="223.123" y="136.717" style="fill:#263238;stroke:#263238;stroke-linecap:round;stroke-linejoin:round;stroke-miterlimit:10;" width="381.422" height="231.354"/>
		
			<rect x="215.438" y="136.717" style="fill:#92E3A9;stroke:#263238;stroke-linecap:round;stroke-linejoin:round;stroke-miterlimit:10;" width="381.422" height="231.354"/>
		<g>
			
				<rect x="229.183" y="145.055" style="fill:#FFFFFF;stroke:#263238;stroke-linecap:round;stroke-linejoin:round;stroke-miterlimit:10;" width="353.932" height="214.68"/>
			
				<rect x="229.183" y="346.806" style="fill:#FFFFFF;stroke:#263238;stroke-linecap:round;stroke-linejoin:round;stroke-miterlimit:10;" width="353.932" height="12.929"/>
		</g>
		<polygon style="fill:#263238;stroke:#263238;stroke-linecap:round;stroke-linejoin:round;stroke-miterlimit:10;" points="
			407.799,446.101 295.747,453.342 295.747,460.637 516.551,460.637 516.551,453.342 		"/>
		
			<rect x="229.183" y="145.055" style="fill:#FFFFFF;stroke:#263238;stroke-linecap:round;stroke-linejoin:round;stroke-miterlimit:10;" width="353.932" height="214.68"/>
	</g>
</g>
<g id="Icon_5">
	<g>
		
			<line style="fill:none;stroke:#263238;stroke-miterlimit:10;stroke-dasharray:5;" x1="352.718" y1="95.812" x2="322.37" y2="141.826"/>
		<g>
			<path style="fill:#92E3A9;stroke:#263238;stroke-linecap:round;stroke-linejoin:round;stroke-miterlimit:10;" d="M401.034,71.272
				V60.82l-10.438-1.161c-0.573-2.208-1.444-4.294-2.559-6.22l6.593-8.243l-7.391-7.391l-8.207,6.564
				c-1.919-1.129-4.001-2.011-6.203-2.599l-1.166-10.486h-10.452l-1.161,10.438c-2.208,0.572-4.293,1.444-6.22,2.559l-8.243-6.593
				l-7.391,7.391l6.564,8.207c-1.129,1.919-2.011,4-2.599,6.203l-10.486,1.166v10.452l10.438,1.161
				c0.573,2.208,1.444,4.293,2.559,6.22l-6.593,8.243l7.391,7.391l8.207-6.564c1.919,1.129,4.001,2.011,6.203,2.599l1.166,10.486
				h10.452l1.161-10.438c2.208-0.573,4.294-1.444,6.221-2.559l8.243,6.593l7.391-7.391l-6.564-8.207
				c1.129-1.919,2.011-4,2.599-6.203L401.034,71.272z M366.355,78.437c-6.889,0-12.474-5.585-12.474-12.474
				c0-6.889,5.585-12.474,12.474-12.474c6.889,0,12.474,5.585,12.474,12.474C378.829,72.853,373.244,78.437,366.355,78.437z"/>
			<path style="fill:#263238;stroke:#263238;stroke-miterlimit:10;" d="M442.107,50.292l-1.158-6.92l-7.039,0.388
				c-0.624-1.398-1.432-2.683-2.384-3.835l3.451-6.188l-5.712-4.074l-4.706,5.255c-1.396-0.535-2.871-0.888-4.395-1.033
				l-1.934-6.813l-6.92,1.158l0.388,7.039c-1.398,0.624-2.682,1.432-3.835,2.384l-6.188-3.451l-4.074,5.712l5.255,4.706
				c-0.535,1.396-0.888,2.871-1.033,4.395l-6.813,1.934l1.158,6.92l7.039-0.388c0.624,1.398,1.432,2.682,2.384,3.835l-3.451,6.188
				l5.712,4.074l4.706-5.255c1.396,0.535,2.871,0.888,4.395,1.033l1.934,6.813l6.92-1.158l-0.388-7.039
				c1.398-0.624,2.683-1.432,3.835-2.384l6.188,3.451l4.074-5.712l-5.255-4.706c0.535-1.396,0.888-2.871,1.033-4.395L442.107,50.292
				z M419.942,58.879c-4.561,0.763-8.877-2.315-9.641-6.876c-0.763-4.561,2.315-8.877,6.876-9.641
				c4.561-0.763,8.877,2.315,9.641,6.876C427.581,53.799,424.503,58.115,419.942,58.879z"/>
		</g>
	</g>
</g>
<g id="Icon_4">
	<g>
		<g>
			<g>
				<line style="fill:none;stroke:#263238;stroke-miterlimit:10;" x1="263.562" y1="96.295" x2="264.05" y2="98.746"/>
				
					<line style="fill:none;stroke:#263238;stroke-miterlimit:10;stroke-dasharray:4.7011,4.7011;" x1="264.967" y1="103.357" x2="271.844" y2="137.939"/>
				<line style="fill:none;stroke:#263238;stroke-miterlimit:10;" x1="272.302" y1="140.244" x2="272.79" y2="142.696"/>
			</g>
		</g>
		<g>
			<g>
				
					<rect x="270.598" y="39.432" transform="matrix(-1 -1.224647e-16 1.224647e-16 -1 555.3151 131.4324)" style="fill:#92E3A9;stroke:#263238;stroke-linecap:round;stroke-linejoin:round;stroke-miterlimit:10;" width="14.12" height="52.568"/>
				
					<rect x="251.771" y="51.201" transform="matrix(-1 -1.224647e-16 1.224647e-16 -1 517.6614 143.2013)" style="fill:#263238;stroke:#263238;stroke-miterlimit:10;" width="14.12" height="40.799"/>
				
					<rect x="232.944" y="60.616" transform="matrix(-1 -1.224647e-16 1.224647e-16 -1 480.0077 152.6164)" style="fill:#92E3A9;stroke:#263238;stroke-linecap:round;stroke-linejoin:round;stroke-miterlimit:10;" width="14.12" height="31.384"/>
				
					<rect x="214.117" y="68.462" transform="matrix(-1 -1.224647e-16 1.224647e-16 -1 442.3541 160.4623)" style="fill:#263238;stroke:#263238;stroke-miterlimit:10;" width="14.12" height="23.538"/>
			</g>
			<g>
				<g>
					<polygon style="fill:#263238;" points="220.722,64.989 219.344,63.178 233.781,52.193 240.939,54.579 252.759,41.85 
						259.715,43.967 272.32,29.517 277.659,32.973 283.204,29.05 284.519,30.908 277.716,35.72 272.739,32.499 260.461,46.573 
						253.458,44.441 241.61,57.201 234.202,54.733 					"/>
				</g>
				<g>
					<g>
						<polygon style="fill:#263238;" points="285.667,35.235 290.129,25.546 279.507,26.526 						"/>
					</g>
				</g>
			</g>
		</g>
	</g>
</g>
<g id="Icon_3">
	<g>
		<g>
			<g>
				<line style="fill:none;stroke:#263238;stroke-miterlimit:10;" x1="152.866" y1="94.429" x2="154.951" y2="95.808"/>
				
					<line style="fill:none;stroke:#263238;stroke-miterlimit:10;stroke-dasharray:5.0123,5.0123;" x1="159.132" y1="98.572" x2="223.939" y2="141.419"/>
				<line style="fill:none;stroke:#263238;stroke-miterlimit:10;" x1="226.029" y1="142.801" x2="228.115" y2="144.18"/>
			</g>
		</g>
		<g>
			<g>
				<path style="fill:#FFFFFF;stroke:#263238;stroke-linecap:round;stroke-linejoin:round;stroke-miterlimit:10;" d="
					M164.477,107.577H79.126V57.923c0-3.521,2.854-6.376,6.376-6.376h72.6c3.521,0,6.376,2.855,6.376,6.376V107.577z"/>
				<g>
					
						<line style="fill:none;stroke:#263238;stroke-linecap:round;stroke-linejoin:round;stroke-miterlimit:10;" x1="100.658" y1="74.065" x2="141.086" y2="74.065"/>
					
						<line style="fill:none;stroke:#263238;stroke-linecap:round;stroke-linejoin:round;stroke-miterlimit:10;" x1="100.658" y1="80.585" x2="141.086" y2="80.585"/>
					
						<line style="fill:none;stroke:#263238;stroke-linecap:round;stroke-linejoin:round;stroke-miterlimit:10;" x1="100.658" y1="87.106" x2="141.086" y2="87.106"/>
					
						<line style="fill:none;stroke:#263238;stroke-linecap:round;stroke-linejoin:round;stroke-miterlimit:10;" x1="100.658" y1="93.627" x2="141.086" y2="93.627"/>
				</g>
				<path style="fill:#92E3A9;stroke:#263238;stroke-linecap:round;stroke-linejoin:round;stroke-miterlimit:10;" d="
					M164.477,60.395v-3.629c0-2.882-2.337-5.219-5.219-5.219H84.344c-2.882,0-5.219,2.336-5.219,5.219v3.629H164.477z"/>
				<path style="fill:#263238;stroke:#263238;stroke-linecap:round;stroke-linejoin:round;stroke-miterlimit:10;" d="M149.884,56.2
					c0-0.727-0.59-1.317-1.317-1.317c-0.727,0-1.317,0.59-1.317,1.317c0,0.727,0.59,1.317,1.317,1.317
					C149.294,57.516,149.884,56.927,149.884,56.2z"/>
				<path style="fill:#263238;stroke:#263238;stroke-linecap:round;stroke-linejoin:round;stroke-miterlimit:10;" d="M155.152,56.2
					c0-0.727-0.59-1.317-1.317-1.317s-1.317,0.59-1.317,1.317c0,0.727,0.59,1.317,1.317,1.317S155.152,56.927,155.152,56.2z"/>
				<path style="fill:#263238;stroke:#263238;stroke-linecap:round;stroke-linejoin:round;stroke-miterlimit:10;" d="M160.42,56.2
					c0-0.727-0.59-1.317-1.317-1.317c-0.727,0-1.317,0.59-1.317,1.317c0,0.727,0.59,1.317,1.317,1.317
					C159.83,57.516,160.42,56.927,160.42,56.2z"/>
			</g>
			<g>
				<path style="fill:#263238;stroke:#263238;stroke-linejoin:round;stroke-miterlimit:10;" d="M68.298,119.486L68.298,119.486
					c-1.433-1.186-1.602-3.322-0.373-4.718l23.974-27.505l3.664,3.034l-22.559,28.676C71.86,120.44,69.73,120.673,68.298,119.486z"
					/>
				<path style="fill:#FFFFFF;stroke:#263238;stroke-linejoin:round;stroke-miterlimit:10;" d="M85.519,94.582l-17.594,20.186
					c-1.228,1.397-1.06,3.532,0.373,4.718c1.433,1.186,3.562,0.954,4.705-0.513l16.642-21.155L85.519,94.582z"/>
				<path style="fill:#263238;stroke:#263238;stroke-linejoin:round;stroke-miterlimit:10;" d="M111.893,66.846
					c-6.433-5.327-15.966-4.43-21.293,2.003c-5.327,6.433-4.43,15.967,2.003,21.294c6.433,5.327,15.967,4.43,21.294-2.003
					C119.222,81.706,118.326,72.173,111.893,66.846z M93.994,88.461c-5.505-4.558-6.272-12.715-1.714-18.22
					c4.558-5.505,12.716-6.272,18.22-1.714c5.505,4.558,6.272,12.716,1.714,18.22C107.656,92.252,99.499,93.019,93.994,88.461z"/>
			</g>
		</g>
	</g>
</g>
<g id="Icon_2">
	<g>
		<g>
			<g>
				<line style="fill:none;stroke:#263238;stroke-miterlimit:10;" x1="123.015" y1="213.21" x2="125.515" y2="213.21"/>
				
					<line style="fill:none;stroke:#263238;stroke-miterlimit:10;stroke-dasharray:5.0103,5.0103;" x1="130.525" y1="213.21" x2="218.204" y2="213.21"/>
				<line style="fill:none;stroke:#263238;stroke-miterlimit:10;" x1="220.71" y1="213.21" x2="223.21" y2="213.21"/>
			</g>
		</g>
		<g>
			
				<line style="fill:none;stroke:#263238;stroke-linecap:round;stroke-linejoin:round;stroke-miterlimit:10;" x1="81.879" y1="175.996" x2="138.411" y2="175.996"/>
			
				<line style="fill:none;stroke:#263238;stroke-linecap:round;stroke-linejoin:round;stroke-miterlimit:10;" x1="110.145" y1="203.847" x2="110.145" y2="175.996"/>
			
				<line style="fill:none;stroke:#263238;stroke-linecap:round;stroke-linejoin:round;stroke-miterlimit:10;" x1="65.346" y1="182.929" x2="65.346" y2="218.158"/>
			<polyline style="fill:none;stroke:#263238;stroke-linecap:round;stroke-linejoin:round;stroke-miterlimit:10;" points="
				119.745,221.861 170.943,221.861 170.943,252.823 			"/>
			
				<line style="fill:none;stroke:#263238;stroke-linecap:round;stroke-linejoin:round;stroke-miterlimit:10;" x1="138.411" y1="222.395" x2="138.411" y2="252.26"/>
			<rect x="55.213" y="164.263" style="fill:#263238;stroke:#263238;stroke-miterlimit:10;" width="36.799" height="25.066"/>
			
				<rect x="124.811" y="164.263" style="fill:#92E3A9;stroke:#263238;stroke-linecap:round;stroke-linejoin:round;stroke-miterlimit:10;" width="36.799" height="25.066"/>
			
				<rect x="126.945" y="244.794" style="fill:#92E3A9;stroke:#263238;stroke-linecap:round;stroke-linejoin:round;stroke-miterlimit:10;" width="23.576" height="16.059"/>
			
				<rect x="54.947" y="210.128" style="fill:#FFFFFF;stroke:#263238;stroke-linecap:round;stroke-linejoin:round;stroke-miterlimit:10;" width="23.576" height="16.059"/>
			<rect x="157.877" y="244.794" style="fill:#263238;stroke:#263238;stroke-miterlimit:10;" width="23.576" height="16.059"/>
			
				<rect x="97.03" y="209.279" transform="matrix(0.7071 -0.7071 0.7071 0.7071 -124.9959 143.0218)" style="fill:#92E3A9;stroke:#263238;stroke-linecap:round;stroke-linejoin:round;stroke-miterlimit:10;" width="26.23" height="26.23"/>
		</g>
	</g>
</g>
<g id="Icon_1">
	<g>
		<g>
			<g>
				<line style="fill:none;stroke:#263238;stroke-miterlimit:10;" x1="178.363" y1="331.991" x2="180.729" y2="331.184"/>
				
					<line style="fill:none;stroke:#263238;stroke-miterlimit:10;stroke-dasharray:5.0161,5.0161;" x1="185.476" y1="329.563" x2="221.08" y2="317.409"/>
				<line style="fill:none;stroke:#263238;stroke-miterlimit:10;" x1="223.453" y1="316.599" x2="225.819" y2="315.791"/>
			</g>
		</g>
		<g>
			
				<rect x="60.036" y="316.444" style="fill:#FFFFFF;stroke:#263238;stroke-linecap:round;stroke-linejoin:round;stroke-miterlimit:10;" width="112.707" height="26.472"/>
			<g>
				
					<rect x="113.461" y="349.254" style="fill:#FFFFFF;stroke:#263238;stroke-linecap:round;stroke-linejoin:round;stroke-miterlimit:10;" width="58.909" height="35.047"/>
				<polygon style="fill:#263238;stroke:#263238;stroke-linecap:round;stroke-linejoin:round;stroke-miterlimit:10;" points="
					113.461,384.302 133.967,367.897 142.542,374.235 160.439,360.44 171.997,371.625 171.997,384.302 				"/>
				
					<circle style="fill:#263238;stroke:#263238;stroke-linecap:round;stroke-linejoin:round;stroke-miterlimit:10;" cx="123.527" cy="358.203" r="4.101"/>
			</g>
			<g>
				
					<rect x="113.461" y="389.149" style="fill:#FFFFFF;stroke:#263238;stroke-linecap:round;stroke-linejoin:round;stroke-miterlimit:10;" width="58.909" height="35.047"/>
				<polygon style="fill:#263238;stroke:#263238;stroke-linecap:round;stroke-linejoin:round;stroke-miterlimit:10;" points="
					113.461,424.196 133.967,407.791 142.542,414.129 160.439,400.334 171.997,411.519 171.997,424.196 				"/>
				
					<circle style="fill:#263238;stroke:#263238;stroke-linecap:round;stroke-linejoin:round;stroke-miterlimit:10;" cx="123.527" cy="398.097" r="4.101"/>
			</g>
			<line style="fill:none;stroke:#263238;stroke-miterlimit:10;" x1="61.752" y1="351.892" x2="106.529" y2="351.892"/>
			<line style="fill:none;stroke:#263238;stroke-miterlimit:10;" x1="61.752" y1="361.842" x2="106.529" y2="361.842"/>
			<line style="fill:none;stroke:#263238;stroke-miterlimit:10;" x1="61.752" y1="371.792" x2="106.529" y2="371.792"/>
			<line style="fill:none;stroke:#263238;stroke-miterlimit:10;" x1="61.752" y1="381.743" x2="106.529" y2="381.743"/>
			<line style="fill:none;stroke:#263238;stroke-miterlimit:10;" x1="61.752" y1="391.693" x2="106.529" y2="391.693"/>
			<line style="fill:none;stroke:#263238;stroke-miterlimit:10;" x1="61.752" y1="401.643" x2="106.529" y2="401.643"/>
			<line style="fill:none;stroke:#263238;stroke-miterlimit:10;" x1="61.752" y1="411.594" x2="106.529" y2="411.594"/>
			<line style="fill:none;stroke:#263238;stroke-miterlimit:10;" x1="61.752" y1="421.544" x2="106.529" y2="421.544"/>
		</g>
	</g>
</g>
<g id="Screen_2">
	<g>
		
			<rect x="405.076" y="156.708" style="fill:#FFFFFF;stroke:#263238;stroke-linecap:round;stroke-linejoin:round;stroke-miterlimit:10;" width="170.658" height="48.354"/>
		<g>
			
				<rect x="467.449" y="216.64" style="fill:#FFFFFF;stroke:#263238;stroke-linecap:round;stroke-linejoin:round;stroke-miterlimit:10;" width="107.605" height="64.018"/>
			<polygon style="fill:#263238;stroke:#263238;stroke-linecap:round;stroke-linejoin:round;stroke-miterlimit:10;" points="
				467.449,280.658 504.906,250.692 520.57,262.27 553.26,237.072 574.373,257.503 574.373,280.658 			"/>
			<path style="fill:#263238;stroke:#263238;stroke-linecap:round;stroke-linejoin:round;stroke-miterlimit:10;" d="
				M493.328,232.985c0,4.137-3.354,7.492-7.491,7.492c-4.138,0-7.492-3.354-7.492-7.492s3.354-7.492,7.492-7.492
				C489.974,225.494,493.328,228.848,493.328,232.985z"/>
		</g>
		<g>
			
				<rect x="467.449" y="289.512" style="fill:#FFFFFF;stroke:#263238;stroke-linecap:round;stroke-linejoin:round;stroke-miterlimit:10;" width="107.605" height="64.018"/>
			<polygon style="fill:#263238;stroke:#263238;stroke-linecap:round;stroke-linejoin:round;stroke-miterlimit:10;" points="
				467.449,353.53 504.906,323.564 520.57,335.142 553.26,309.943 574.373,330.375 574.373,353.53 			"/>
			<path style="fill:#263238;stroke:#263238;stroke-linecap:round;stroke-linejoin:round;stroke-miterlimit:10;" d="
				M493.328,305.857c0,4.137-3.354,7.492-7.491,7.492c-4.138,0-7.492-3.354-7.492-7.492c0-4.137,3.354-7.491,7.492-7.491
				C489.974,298.366,493.328,301.72,493.328,305.857z"/>
		</g>
		<g>
			<g>
				<path style="fill:#263238;" d="M413.913,320.573l-4.191-25.722h2.985l2.763,18.482l3.461-18.386h2.541l3.493,18.482
					l2.699-18.577h2.922l-4.129,25.722h-2.604l-3.588-19.053l-3.62,19.053H413.913z"/>
			</g>
			<line style="fill:none;stroke:#263238;stroke-miterlimit:10;" x1="434.495" y1="296.412" x2="459.653" y2="296.412"/>
			<line style="fill:none;stroke:#263238;stroke-miterlimit:10;" x1="434.495" y1="303.352" x2="459.653" y2="303.352"/>
			<line style="fill:none;stroke:#263238;stroke-miterlimit:10;" x1="434.495" y1="310.293" x2="459.653" y2="310.293"/>
			<line style="fill:none;stroke:#263238;stroke-miterlimit:10;" x1="434.495" y1="317.233" x2="459.653" y2="317.233"/>
			<line style="fill:none;stroke:#263238;stroke-miterlimit:10;" x1="434.495" y1="324.173" x2="459.653" y2="324.173"/>
			<line style="fill:none;stroke:#263238;stroke-miterlimit:10;" x1="434.495" y1="331.113" x2="459.653" y2="331.113"/>
			<line style="fill:none;stroke:#263238;stroke-miterlimit:10;" x1="434.495" y1="338.053" x2="459.653" y2="338.053"/>
			<line style="fill:none;stroke:#263238;stroke-miterlimit:10;" x1="434.495" y1="344.994" x2="459.653" y2="344.994"/>
			<line style="fill:none;stroke:#263238;stroke-miterlimit:10;" x1="434.495" y1="351.934" x2="459.653" y2="351.934"/>
		</g>
	</g>
</g>
<g id="Screen_1">
	<g>
		<path style="fill:#263238;stroke:#263238;stroke-linecap:round;stroke-linejoin:round;stroke-miterlimit:10;" d="M419.472,217.662
			c-7.142,0-13.779,2.158-19.299,5.855v-78.462h-170.99v214.68h170.99v-78.462c5.52,3.697,12.157,5.855,19.299,5.855
			c19.182,0,34.733-15.55,34.733-34.733C454.205,233.212,438.655,217.662,419.472,217.662z"/>
		<g>
			<g>
				<g>
					
						<line style="fill:none;stroke:#FFFFFF;stroke-width:2;stroke-linecap:round;stroke-linejoin:round;stroke-miterlimit:10;" x1="246.968" y1="177.821" x2="323.926" y2="177.821"/>
					
						<line style="fill:none;stroke:#FFFFFF;stroke-width:2;stroke-linecap:round;stroke-linejoin:round;stroke-miterlimit:10;" x1="246.968" y1="200.85" x2="287.149" y2="200.85"/>
					<g>
						
							<line style="fill:none;stroke:#92E3A9;stroke-width:2;stroke-linecap:round;stroke-linejoin:round;stroke-miterlimit:10;" x1="246.968" y1="188.184" x2="284.425" y2="188.184"/>
						
							<line style="fill:none;stroke:#92E3A9;stroke-width:2;stroke-linecap:round;stroke-linejoin:round;stroke-miterlimit:10;" x1="292.598" y1="188.184" x2="312.348" y2="188.184"/>
						
							<line style="fill:none;stroke:#92E3A9;stroke-width:2;stroke-linecap:round;stroke-linejoin:round;stroke-miterlimit:10;" x1="323.926" y1="188.184" x2="343.676" y2="188.184"/>
					</g>
					<g>
						
							<line style="fill:none;stroke:#FFFFFF;stroke-width:2;stroke-linecap:round;stroke-linejoin:round;stroke-miterlimit:10;" x1="246.968" y1="210.637" x2="284.425" y2="210.637"/>
						
							<line style="fill:none;stroke:#FFFFFF;stroke-width:2;stroke-linecap:round;stroke-linejoin:round;stroke-miterlimit:10;" x1="292.598" y1="210.637" x2="312.348" y2="210.637"/>
						
							<line style="fill:none;stroke:#92E3A9;stroke-width:2;stroke-linecap:round;stroke-linejoin:round;stroke-miterlimit:10;" x1="323.926" y1="210.637" x2="343.676" y2="210.637"/>
					</g>
					<g>
						
							<line style="fill:none;stroke:#FFFFFF;stroke-width:2;stroke-linecap:round;stroke-linejoin:round;stroke-miterlimit:10;" x1="246.968" y1="233.09" x2="284.425" y2="233.09"/>
						
							<line style="fill:none;stroke:#92E3A9;stroke-width:2;stroke-linecap:round;stroke-linejoin:round;stroke-miterlimit:10;" x1="292.598" y1="233.09" x2="312.348" y2="233.09"/>
						
							<line style="fill:none;stroke:#FFFFFF;stroke-width:2;stroke-linecap:round;stroke-linejoin:round;stroke-miterlimit:10;" x1="323.926" y1="233.09" x2="343.676" y2="233.09"/>
					</g>
					<g>
						
							<line style="fill:none;stroke:#FFFFFF;stroke-width:2;stroke-linecap:round;stroke-linejoin:round;stroke-miterlimit:10;" x1="270.123" y1="242.878" x2="298.612" y2="242.878"/>
						
							<line style="fill:none;stroke:#FFFFFF;stroke-width:2;stroke-linecap:round;stroke-linejoin:round;stroke-miterlimit:10;" x1="304.828" y1="242.878" x2="319.849" y2="242.878"/>
						
							<line style="fill:none;stroke:#FFFFFF;stroke-width:2;stroke-linecap:round;stroke-linejoin:round;stroke-miterlimit:10;" x1="328.655" y1="242.878" x2="343.676" y2="242.878"/>
					</g>
					<g>
						
							<line style="fill:none;stroke:#FFFFFF;stroke-width:2;stroke-linecap:round;stroke-linejoin:round;stroke-miterlimit:10;" x1="270.123" y1="254.968" x2="298.612" y2="254.968"/>
						
							<line style="fill:none;stroke:#FFFFFF;stroke-width:2;stroke-linecap:round;stroke-linejoin:round;stroke-miterlimit:10;" x1="304.828" y1="254.968" x2="319.849" y2="254.968"/>
						
							<line style="fill:none;stroke:#FFFFFF;stroke-width:2;stroke-linecap:round;stroke-linejoin:round;stroke-miterlimit:10;" x1="328.655" y1="254.968" x2="343.676" y2="254.968"/>
					</g>
				</g>
				<g>
					
						<line style="fill:none;stroke:#92E3A9;stroke-width:2;stroke-linecap:round;stroke-linejoin:round;stroke-miterlimit:10;" x1="246.968" y1="268.21" x2="323.926" y2="268.21"/>
					
						<line style="fill:none;stroke:#FFFFFF;stroke-width:2;stroke-linecap:round;stroke-linejoin:round;stroke-miterlimit:10;" x1="246.968" y1="291.239" x2="287.149" y2="291.239"/>
					<g>
						
							<line style="fill:none;stroke:#92E3A9;stroke-width:2;stroke-linecap:round;stroke-linejoin:round;stroke-miterlimit:10;" x1="246.968" y1="278.573" x2="284.425" y2="278.573"/>
						
							<line style="fill:none;stroke:#FFFFFF;stroke-width:2;stroke-linecap:round;stroke-linejoin:round;stroke-miterlimit:10;" x1="292.598" y1="278.573" x2="312.348" y2="278.573"/>
						
							<line style="fill:none;stroke:#92E3A9;stroke-width:2;stroke-linecap:round;stroke-linejoin:round;stroke-miterlimit:10;" x1="323.926" y1="278.573" x2="343.676" y2="278.573"/>
					</g>
					<g>
						
							<line style="fill:none;stroke:#92E3A9;stroke-width:2;stroke-linecap:round;stroke-linejoin:round;stroke-miterlimit:10;" x1="246.968" y1="301.026" x2="284.425" y2="301.026"/>
						
							<line style="fill:none;stroke:#92E3A9;stroke-width:2;stroke-linecap:round;stroke-linejoin:round;stroke-miterlimit:10;" x1="292.598" y1="301.026" x2="312.348" y2="301.026"/>
						
							<line style="fill:none;stroke:#FFFFFF;stroke-width:2;stroke-linecap:round;stroke-linejoin:round;stroke-miterlimit:10;" x1="323.926" y1="301.026" x2="343.676" y2="301.026"/>
					</g>
					<g>
						
							<line style="fill:none;stroke:#FFFFFF;stroke-width:2;stroke-linecap:round;stroke-linejoin:round;stroke-miterlimit:10;" x1="246.968" y1="323.48" x2="284.425" y2="323.48"/>
						
							<line style="fill:none;stroke:#92E3A9;stroke-width:2;stroke-linecap:round;stroke-linejoin:round;stroke-miterlimit:10;" x1="292.598" y1="323.48" x2="312.348" y2="323.48"/>
						
							<line style="fill:none;stroke:#92E3A9;stroke-width:2;stroke-linecap:round;stroke-linejoin:round;stroke-miterlimit:10;" x1="323.926" y1="323.48" x2="343.676" y2="323.48"/>
					</g>
					<g>
						
							<line style="fill:none;stroke:#FFFFFF;stroke-width:2;stroke-linecap:round;stroke-linejoin:round;stroke-miterlimit:10;" x1="270.123" y1="333.267" x2="298.612" y2="333.267"/>
						
							<line style="fill:none;stroke:#FFFFFF;stroke-width:2;stroke-linecap:round;stroke-linejoin:round;stroke-miterlimit:10;" x1="304.828" y1="333.267" x2="319.849" y2="333.267"/>
						
							<line style="fill:none;stroke:#FFFFFF;stroke-width:2;stroke-linecap:round;stroke-linejoin:round;stroke-miterlimit:10;" x1="328.655" y1="333.267" x2="343.676" y2="333.267"/>
					</g>
					<g>
						
							<line style="fill:none;stroke:#FFFFFF;stroke-width:2;stroke-linecap:round;stroke-linejoin:round;stroke-miterlimit:10;" x1="270.123" y1="345.358" x2="298.612" y2="345.358"/>
						
							<line style="fill:none;stroke:#FFFFFF;stroke-width:2;stroke-linecap:round;stroke-linejoin:round;stroke-miterlimit:10;" x1="304.828" y1="345.358" x2="319.849" y2="345.358"/>
						
							<line style="fill:none;stroke:#FFFFFF;stroke-width:2;stroke-linecap:round;stroke-linejoin:round;stroke-miterlimit:10;" x1="328.655" y1="345.358" x2="343.676" y2="345.358"/>
					</g>
				</g>
			</g>
			<g>
				<path style="fill:#FFFFFF;stroke:#FFFFFF;stroke-miterlimit:10;" d="M249.068,164.01l7.236-3.727v1.076l-6.098,3.056v0.031
					l6.098,3.057v1.076l-7.236-3.727V164.01z"/>
				<path style="fill:#FFFFFF;stroke:#FFFFFF;stroke-miterlimit:10;" d="M260.63,169.203l4.351-11.306h1.061l-4.367,11.306H260.63z"
					/>
				<path style="fill:#FFFFFF;stroke:#FFFFFF;stroke-miterlimit:10;" d="M277.571,164.867l-7.236,3.712v-1.076l6.145-3.057v-0.031
					l-6.145-3.056v-1.076l7.236,3.712V164.867z"/>
			</g>
		</g>
	</g>
</g>
<g id="Table">
	<g>
		<line style="fill:none;stroke:#263238;stroke-miterlimit:10;" x1="85.958" y1="460.637" x2="720.986" y2="460.637"/>
		<line style="fill:none;stroke:#263238;stroke-miterlimit:10;" x1="52.986" y1="460.637" x2="70.083" y2="460.637"/>
	</g>
</g>
</svg>
